<?xml version="1.0" encoding="utf-8"?>
<!-- Generator: Adobe Illustrator 27.8.1, SVG Export Plug-In . SVG Version: 6.00 Build 0)  -->
<svg version="1.1" id="Layer_1" xmlns="http://www.w3.org/2000/svg" xmlns:xlink="http://www.w3.org/1999/xlink" x="0px" y="0px"
	 viewBox="0 0 1000 200" style="enable-background:new 0 0 1000 200;" xml:space="preserve">
<style type="text/css">
	.st0{fill:#A97C50;}
</style>
<path class="st0" d="M78.38,200H11.47c-6.6,0-12-5.4-12-12v-75.7c0-6.6,5.4-12,12-12h66.91c6.6,0,12,5.4,12,12V188
	C90.38,194.6,84.98,200,78.38,200z"/>
<path class="st0" d="M169.29,100.3h-66.91c-6.6,0-12-5.4-12-12V12.6c0-6.6,5.4-12,12-12h66.91c6.6,0,12,5.4,12,12v75.7
	C181.29,94.9,175.89,100.3,169.29,100.3z"/>
<path class="st0" d="M260.19,200h-66.91c-6.6,0-12-5.4-12-12v-75.7c0-6.6,5.4-12,12-12h66.91c6.6,0,12,5.4,12,12V188
	C272.19,194.6,266.79,200,260.19,200z"/>
<path class="st0" d="M466.55,0h66.91c6.6,0,12,5.4,12,12v75.7c0,6.6-5.4,12-12,12h-66.91c-6.6,0-12-5.4-12-12V12
	C454.55,5.4,459.95,0,466.55,0z"/>
<path class="st0" d="M375.1,100.3h66.91c6.6,0,12,5.4,12,12V188c0,6.6-5.4,12-12,12H375.1c-6.6,0-12-5.4-12-12v-75.7
	C363.1,105.7,368.5,100.3,375.1,100.3z"/>
<path class="st0" d="M284.19,0.6h66.91c6.6,0,12,5.4,12,12v75.7c0,6.6-5.4,12-12,12h-66.91c-6.6,0-12-5.4-12-12V12.6
	C272.19,6,277.59,0.6,284.19,0.6z"/>
<path class="st0" d="M624.37,199.4h-66.91c-6.6,0-12-5.4-12-12v-75.7c0-6.6,5.4-12,12-12h66.91c6.6,0,12,5.4,12,12v75.7
	C636.37,194,630.97,199.4,624.37,199.4z"/>
<path class="st0" d="M715.28,99.7h-66.91c-6.6,0-12-5.4-12-12V12c0-6.6,5.4-12,12-12h66.91c6.6,0,12,5.4,12,12v75.7
	C727.28,94.3,721.88,99.7,715.28,99.7z"/>
<path class="st0" d="M806.18,199.4h-66.91c-6.6,0-12-5.4-12-12v-75.7c0-6.6,5.4-12,12-12h66.91c6.6,0,12,5.4,12,12v75.7
	C818.18,194,812.78,199.4,806.18,199.4z"/>
<path class="st0" d="M921.09,99.7H988c6.6,0,12,5.4,12,12v75.7c0,6.6-5.4,12-12,12h-66.91c-6.6,0-12-5.4-12-12v-75.7
	C909.09,105.1,914.49,99.7,921.09,99.7z"/>
<path class="st0" d="M830.18,0h66.91c6.6,0,12,5.4,12,12v75.7c0,6.6-5.4,12-12,12h-66.91c-6.6,0-12-5.4-12-12V12
	C818.18,5.4,823.58,0,830.18,0z"/>
</svg>
